<svg viewBox="0 0 1210 175" fill="none" xmlns="http://www.w3.org/2000/svg">
    <path d="M880.96 89.5882L931.758 86.4065C931.758 76.7051 938.108 60.9527 938.108 60.9527C938.108 60.9527 946.175 60.9527 953.982 60.9527C960.332 48.2258 969.857 22.772 976.206 22.772C976.206 22.772 979.381 10.0452 985.731 10.0452C994.085 10.0452 1039.7 38.6806 1039.7 38.6806L1004.78 89.5882C1004.78 89.5882 1021.98 80.5677 1039.7 76.8613C1046.02 75.5415 1038.96 61.8865 1046.05 60.9527C1052.18 60.1464 1058.75 57.771 1061.93 57.771C1065.1 57.771 1068.38 15.6173 1074.63 22.772C1096.85 48.2259 1142.59 77.7547 1154 89.5882L1115.9 35.4989L1106.38 48.2258L1077.8 6.86344L1042.88 29.1355L1007.96 3.68172L998.431 10.0452L982.556 0.5L969.857 19.5903L953.982 13.2269L915.883 64.1344L905.169 62.1456L880.96 89.5882Z"
          fill="currentColor"/>
    <path d="M136.154 23.2409C136.154 35.161 129.965 41.6804 117.587 42.7979V43.4125C124.055 43.5615 129.147 45.331 132.864 48.7208C136.582 52.1107 138.44 57.0088 138.44 63.4166C138.44 66.0987 138.124 68.7342 137.492 71.3229C136.86 73.9116 135.494 76.2121 133.394 78.224C131.294 80.2358 128.264 81.8745 124.306 83.1411C120.347 84.4077 115.022 85.0409 108.331 85.0409H47V64.311C50.2711 64.311 52.613 63.8733 54.0255 62.9979C55.438 62.1225 56.1442 60.4741 56.1442 58.0528V29.7792C56.1442 27.3207 55.438 25.6537 54.0255 24.7783C52.613 23.9029 50.2712 23.4652 47 23.4652V2.73527H112.179C117.309 2.73527 121.453 3.31265 124.613 4.46742C127.773 5.62218 130.207 7.14949 131.917 9.04929C133.627 10.9491 134.761 13.1376 135.318 15.615C135.876 18.0924 136.154 20.6334 136.154 23.2409ZM97.3458 64.3117C100.468 64.3117 102.624 63.7065 103.813 62.4958C105.003 61.2851 105.598 59.2642 105.598 56.433C105.598 53.6018 105.003 51.5438 103.813 50.2587C102.624 48.9735 100.468 48.3309 97.3458 48.3309H89.0379V64.3118L97.3458 64.3117ZM89.0379 38.4407L97.4571 38.4407C99.7617 38.4407 101.425 37.705 102.447 36.2336C103.469 34.7622 103.981 32.9834 103.981 30.8974C103.981 28.9231 103.469 27.191 102.447 25.7009C101.425 24.2108 99.7617 23.4658 97.4571 23.4658H89.0379V38.4407ZM194.139 23.464C190.868 23.464 188.536 23.9018 187.142 24.7772C185.748 25.6526 185.051 27.3196 185.051 29.7781V64.3101H196.202C197.726 64.3101 199.008 64.1611 200.049 63.8631C201.09 63.5651 201.908 62.9411 202.502 61.9912C203.097 61.0413 203.515 59.7096 203.757 57.996C203.999 56.2825 204.119 54.0102 204.119 51.1791H223.634V85.0406H143.011V64.3106C146.282 64.3106 148.624 63.8729 150.036 62.9975C151.449 62.1221 152.155 60.4738 152.155 58.0524V29.7789C152.155 27.3203 151.449 25.6533 150.036 24.7779C148.624 23.9026 146.282 23.4649 143.011 23.4649V2.7349H194.14L194.139 23.464ZM228.764 43.9725C228.764 36.7831 229.944 30.4783 232.304 25.0581C234.665 19.6379 238.001 15.1028 242.313 11.4523C246.624 7.80183 251.745 5.06397 257.673 3.23872C263.601 1.41348 270.153 0.500745 277.328 0.500745C284.464 0.500745 291.006 1.41337 296.954 3.23872C302.901 5.06408 308.022 7.802 312.315 11.4523C316.608 15.1026 319.935 19.6384 322.295 25.0581C324.655 30.4778 325.835 36.7826 325.835 43.9725C325.835 51.1248 324.655 57.4107 322.295 62.8309C319.934 68.2511 316.608 72.7954 312.315 76.4647C308.022 80.1341 302.901 82.8811 296.954 84.7064C291.006 86.5316 284.464 87.4443 277.328 87.4443C270.154 87.4443 263.602 86.5317 257.673 84.7064C251.745 82.881 246.624 80.1338 242.313 76.4647C238.001 72.7957 234.664 68.2511 232.304 62.8309C229.945 57.4107 228.764 51.1248 228.764 43.9725ZM266.232 43.9725C266.232 48.4799 266.399 52.2519 266.734 55.2873C267.068 58.3227 267.654 60.7818 268.49 62.6633C269.326 64.5447 270.451 65.9041 271.863 66.7423C273.276 67.5804 275.097 67.9995 277.328 67.9995C279.446 67.9995 281.23 67.5804 282.68 66.7423C284.13 65.9041 285.273 64.5445 286.109 62.6633C286.946 60.7821 287.531 58.3235 287.866 55.2873C288.2 52.2512 288.367 48.4802 288.367 43.9725C288.367 39.5397 288.2 35.7773 287.866 32.6852C287.531 29.5932 286.946 27.1162 286.109 25.2538C285.273 23.3914 284.13 22.0409 282.68 21.2027C281.23 20.3645 279.446 19.9455 277.328 19.9455C275.097 19.9455 273.276 20.3646 271.863 21.2027C270.451 22.0409 269.326 23.3912 268.49 25.2538C267.654 27.1163 267.068 29.5935 266.734 32.6852C266.399 35.7769 266.232 39.5393 266.232 43.9725ZM400.162 85.0417L398.323 79.4541C395.981 81.5774 392.756 83.4399 388.649 85.0417C384.542 86.6435 379.811 87.4444 374.459 87.4444C368.437 87.4444 362.75 86.6249 357.397 84.9858C352.044 83.3468 347.37 80.7765 343.374 77.2746C339.378 73.7727 336.219 69.275 333.895 63.7804C331.571 58.2858 330.41 51.6829 330.41 43.9722C330.41 36.2616 331.646 29.6581 334.118 24.164C336.59 18.67 339.843 14.1715 343.876 10.6698C347.909 7.16809 352.472 4.59787 357.564 2.95859C362.656 1.3193 367.879 0.5 373.232 0.5C376.354 0.5 379.169 0.742112 381.679 1.22638C384.188 1.71065 386.39 2.31598 388.286 3.04235C390.181 3.76873 391.78 4.53242 393.081 5.33329C394.382 6.13417 395.441 6.79537 396.259 7.31686V2.73498H414.659V33.1879H395.144C394.995 29.2393 393.815 26.0455 391.603 23.6051C389.391 21.1648 386.316 19.9452 382.376 19.9452C380.368 19.9452 378.491 20.3084 376.744 21.0348C374.997 21.7612 373.455 23.037 372.116 24.8624C370.778 26.6877 369.728 29.1463 368.966 32.2383C368.204 35.3303 367.823 39.2412 367.823 43.9725C367.823 48.4799 368.074 52.2519 368.576 55.2873C369.078 58.3227 369.858 60.7818 370.918 62.6632C371.977 64.5446 373.324 65.9041 374.96 66.7422C376.595 67.5803 378.565 67.9994 380.87 67.9994C381.391 67.9994 382.051 67.9436 382.85 67.8318C383.649 67.7201 384.411 67.5245 385.136 67.2451C385.861 66.9657 386.492 66.6026 387.031 66.1555C387.57 65.7085 387.84 65.0938 387.84 64.3115V61.2383C387.84 59.4875 387.245 58.1559 386.056 57.2432C384.866 56.3306 382.636 55.8742 379.365 55.8742V37.4347H426.423V55.8742C423.152 55.8742 420.81 56.3119 419.398 57.1873C417.985 58.0627 417.279 59.7111 417.279 62.1324V85.0418L400.162 85.0417ZM483.07 64.3117C484.594 64.3117 485.867 64.1814 486.889 63.9206C487.911 63.6598 488.729 63.1663 489.342 62.4399C489.956 61.7135 490.374 60.7171 490.597 59.4505C490.82 58.1839 490.931 56.5635 490.931 54.5892H510.446V85.0422H430.993V64.3122C434.264 64.3122 436.606 63.8745 438.019 62.9991C439.431 62.1237 440.138 60.4754 440.138 58.054V29.7805C440.138 27.3219 439.431 25.6549 438.019 24.7796C436.606 23.9042 434.265 23.4665 430.993 23.4665V2.73652H510.446V33.1895H490.931C490.931 31.2152 490.82 29.5948 490.597 28.3282C490.374 27.0616 489.956 26.0745 489.342 25.3667C488.729 24.6589 487.911 24.1653 486.889 23.8859C485.867 23.6066 484.594 23.4669 483.07 23.4669H473.034V38.3303H490.82V48.2204H473.034V64.3128L483.07 64.3117ZM521.876 29.7797C521.43 28.6249 521.013 27.6657 520.622 26.902C520.232 26.1383 519.712 25.4864 519.061 24.9462C518.411 24.4061 517.593 24.0243 516.608 23.8008C515.623 23.5772 514.331 23.4655 512.733 23.4655V2.73553H561.129V23.4655C555.591 23.4655 553.473 25.3467 554.773 29.109L563.416 56.209H563.917L572.782 29.109C574.083 25.3467 571.965 23.4655 566.426 23.4655V2.73553H598.821V23.4655C597.222 23.4655 595.93 23.5772 594.945 23.8008C593.96 24.0243 593.143 24.4061 592.492 24.9462C591.842 25.4864 591.33 26.1383 590.959 26.902C590.587 27.6657 590.16 28.6249 589.676 29.7797L568.098 85.0417H543.343L521.876 29.7797ZM642.199 56.3213L624.58 56.3211L623.8 58.7238C623.205 60.3256 623.242 61.6573 623.911 62.7189C624.58 63.7806 625.993 64.3114 628.149 64.3114H631.327V85.0414H596.59V64.3114H598.876C601.553 64.3114 603.346 63.7806 604.257 62.7189C605.167 61.6573 606.05 60.1021 606.905 58.0532L618.335 29.7797C619.153 27.6191 619.293 26.0266 618.754 25.0023C618.215 23.9779 616.588 23.4657 613.875 23.4657H612.704V2.73573H670.021V23.4657H668.906C666.156 23.4657 664.511 24.0058 663.972 25.0861C663.433 26.1663 663.591 27.7309 664.446 29.7797L675.876 58.0532C676.322 59.0963 676.722 59.9997 677.075 60.7633C677.428 61.5269 677.865 62.1789 678.385 62.7191C678.905 63.2593 679.602 63.6597 680.476 63.9205C681.35 64.1813 682.474 64.3116 683.849 64.3116H686.135V85.0416H635.452V64.3116H638.519C640.638 64.3116 642.059 63.7808 642.784 62.7191C643.509 61.6575 643.574 60.3258 642.979 58.724L642.199 56.3213ZM627.423 47.6042H639.3L633.724 30.4503H633.278L627.423 47.6042ZM740.721 23.464C737.45 23.464 735.117 23.9018 733.724 24.7772C732.33 25.6526 731.633 27.3196 731.633 29.7781V64.3101H742.784C744.308 64.3101 745.59 64.1611 746.631 63.8631C747.672 63.5651 748.49 62.9411 749.084 61.9912C749.679 61.0413 750.097 59.7096 750.339 57.996C750.581 56.2825 750.701 54.0102 750.701 51.1791H770.216V85.0406H689.593V64.3106C692.864 64.3106 695.206 63.8729 696.618 62.9975C698.031 62.1221 698.737 60.4738 698.737 58.0524V29.7789C698.737 27.3203 698.031 25.6533 696.618 24.7779C695.206 23.9026 692.864 23.4649 689.593 23.4649V2.7349H740.722L740.721 23.464Z"
          fill="currentColor"/>
    <path d="M60.3216 145.99H55.5993V165.183C55.5993 165.533 55.473 165.835 55.2204 166.088C54.9677 166.342 54.6665 166.468 54.3167 166.468C53.9475 166.468 53.6365 166.342 53.3839 166.088C53.1312 165.835 53.0049 165.533 53.0049 165.183V145.99H48.2826C47.9328 145.99 47.6316 145.868 47.379 145.625C47.1263 145.381 47 145.075 47 144.705C47 144.354 47.1263 144.052 47.379 143.799C47.6316 143.546 47.9328 143.419 48.2826 143.419H60.3216C60.6714 143.419 60.9726 143.546 61.2253 143.799C61.4779 144.052 61.6042 144.354 61.6042 144.705C61.6042 145.075 61.4779 145.381 61.2253 145.625C60.9726 145.868 60.6714 145.99 60.3216 145.99ZM101.592 166.468C101.243 166.468 100.941 166.342 100.689 166.088C100.436 165.835 100.31 165.533 100.31 165.183V155.28H88.8538V165.183C88.8538 165.533 88.7275 165.835 88.4748 166.088C88.2222 166.342 87.921 166.468 87.5712 166.468C87.2019 166.468 86.891 166.342 86.6384 166.088C86.3857 165.835 86.2594 165.533 86.2594 165.183V144.705C86.2594 144.354 86.3857 144.052 86.6384 143.799C86.891 143.546 87.2019 143.419 87.5712 143.419C87.921 143.419 88.2222 143.546 88.4748 143.799C88.7275 144.052 88.8538 144.354 88.8538 144.705V152.68H100.31V144.705C100.31 144.354 100.436 144.052 100.689 143.799C100.941 143.546 101.243 143.419 101.592 143.419C101.962 143.419 102.273 143.546 102.525 143.799C102.778 144.052 102.904 144.354 102.904 144.705V165.183C102.904 165.533 102.778 165.835 102.525 166.088C102.273 166.342 101.962 166.468 101.592 166.468ZM131.116 166.468C130.746 166.468 130.435 166.342 130.183 166.088C129.93 165.835 129.804 165.533 129.804 165.183V144.705C129.804 144.354 129.93 144.052 130.183 143.799C130.435 143.546 130.746 143.419 131.116 143.419C131.465 143.419 131.767 143.546 132.019 143.799C132.272 144.052 132.398 144.354 132.398 144.705V165.183C132.398 165.533 132.272 165.835 132.019 166.088C131.767 166.342 131.465 166.468 131.116 166.468ZM173.494 166.468C173.008 166.468 172.639 166.264 172.386 165.855L161.863 149.145V165.183C161.863 165.533 161.742 165.835 161.499 166.088C161.256 166.342 160.95 166.468 160.581 166.468C160.231 166.468 159.93 166.342 159.677 166.088C159.424 165.835 159.298 165.533 159.298 165.183V144.705C159.298 144.354 159.424 144.052 159.677 143.799C159.93 143.546 160.231 143.419 160.581 143.419C161.066 143.419 161.436 143.614 161.688 144.004L172.212 160.713V144.705C172.212 144.354 172.333 144.052 172.576 143.799C172.819 143.546 173.125 143.419 173.494 143.419C173.844 143.419 174.145 143.546 174.398 143.799C174.65 144.052 174.777 144.354 174.777 144.705V165.183C174.777 165.533 174.65 165.835 174.398 166.088C174.145 166.342 173.844 166.468 173.494 166.468ZM214.911 166.468C214.561 166.468 214.269 166.351 214.036 166.118L204.242 156.711V165.183C204.242 165.533 204.12 165.835 203.877 166.089C203.634 166.342 203.328 166.468 202.959 166.468C202.609 166.468 202.308 166.342 202.055 166.089C201.803 165.835 201.676 165.533 201.676 165.183V144.705C201.676 144.335 201.803 144.028 202.055 143.784C202.308 143.541 202.609 143.419 202.959 143.419C203.328 143.419 203.634 143.541 203.877 143.784C204.12 144.028 204.242 144.335 204.242 144.705V153.176L214.036 143.77C214.289 143.517 214.59 143.395 214.94 143.405C215.29 143.414 215.591 143.546 215.843 143.799C216.096 144.072 216.218 144.383 216.208 144.734C216.198 145.084 216.067 145.386 215.814 145.639L206.136 154.929L215.814 164.248C216.067 164.501 216.198 164.803 216.208 165.154C216.218 165.504 216.096 165.806 215.843 166.059C215.61 166.332 215.299 166.468 214.911 166.468ZM280.574 156.331L280.224 156.331L280.603 155.659L285.88 164.511C285.996 164.725 286.054 164.949 286.054 165.183C286.054 165.533 285.928 165.835 285.675 166.088C285.423 166.342 285.122 166.468 284.772 166.468C284.539 166.468 284.32 166.41 284.116 166.293C283.912 166.176 283.752 166.02 283.635 165.826L277.98 156.331H276.726V165.183C276.726 165.533 276.6 165.835 276.347 166.088C276.095 166.342 275.794 166.468 275.444 166.468C275.075 166.468 274.764 166.342 274.511 166.088C274.258 165.835 274.132 165.533 274.132 165.183V144.705C274.132 144.354 274.258 144.052 274.511 143.799C274.764 143.546 275.075 143.419 275.444 143.419H280.574C281.468 143.419 282.309 143.59 283.096 143.93C283.883 144.271 284.568 144.734 285.151 145.318C285.734 145.902 286.195 146.584 286.535 147.363C286.876 148.142 287.046 148.979 287.046 149.875C287.046 150.771 286.876 151.609 286.535 152.388C286.195 153.167 285.734 153.848 285.151 154.432C284.568 155.017 283.883 155.479 283.096 155.82C282.309 156.161 281.468 156.331 280.574 156.331ZM280.574 145.99H276.726V153.731H280.574C281.099 153.731 281.599 153.629 282.075 153.425C282.552 153.22 282.965 152.943 283.314 152.592C283.664 152.242 283.941 151.833 284.145 151.365C284.349 150.898 284.451 150.401 284.451 149.875C284.451 149.35 284.349 148.848 284.145 148.371C283.941 147.894 283.664 147.48 283.314 147.129C282.965 146.779 282.552 146.501 282.075 146.297C281.599 146.092 281.099 145.99 280.574 145.99ZM323.361 166.468L313.333 166.468C312.964 166.468 312.653 166.342 312.4 166.088C312.148 165.835 312.021 165.533 312.021 165.183V165.124V165.066V144.705C312.021 144.354 312.148 144.052 312.4 143.799C312.653 143.546 312.964 143.419 313.333 143.419H323.361C323.73 143.419 324.041 143.546 324.294 143.799C324.546 144.052 324.673 144.354 324.673 144.705C324.673 145.075 324.546 145.381 324.294 145.625C324.041 145.868 323.73 145.99 323.361 145.99H314.616V153.439H321.991C322.341 153.439 322.642 153.561 322.894 153.804C323.147 154.048 323.273 154.355 323.273 154.725C323.273 155.075 323.147 155.377 322.894 155.63C322.642 155.883 322.341 156.01 321.991 156.01H314.616V163.868H323.361C323.73 163.868 324.041 163.995 324.294 164.248C324.546 164.501 324.673 164.813 324.673 165.183C324.673 165.533 324.546 165.835 324.294 166.088C324.041 166.342 323.73 166.468 323.361 166.468ZM355.682 166.468C354.789 166.468 353.953 166.298 353.176 165.957C352.398 165.616 351.718 165.154 351.135 164.569C350.552 163.985 350.09 163.304 349.75 162.524C349.41 161.745 349.24 160.908 349.24 160.012C349.24 159.642 349.367 159.331 349.619 159.077C349.872 158.824 350.183 158.698 350.552 158.698C350.902 158.698 351.203 158.824 351.456 159.077C351.708 159.331 351.835 159.642 351.835 160.012C351.835 160.538 351.937 161.035 352.141 161.502C352.345 161.969 352.622 162.378 352.972 162.729C353.321 163.08 353.729 163.357 354.196 163.562C354.662 163.766 355.158 163.868 355.682 163.868C356.207 163.868 356.708 163.766 357.184 163.562C357.66 163.357 358.073 163.08 358.423 162.729C358.772 162.378 359.049 161.969 359.253 161.502C359.457 161.035 359.559 160.538 359.559 160.012C359.559 159.369 359.433 158.839 359.18 158.42C358.928 158.001 358.578 157.636 358.131 157.325C357.917 157.169 357.674 157.028 357.402 156.901C357.13 156.774 356.849 156.643 356.557 156.507C356.266 156.39 355.964 156.273 355.653 156.156C355.342 156.039 355.022 155.922 354.691 155.806C354.05 155.572 353.404 155.309 352.753 155.017C352.102 154.725 351.519 154.36 351.004 153.921C350.489 153.483 350.066 152.938 349.736 152.285C349.406 151.633 349.24 150.83 349.24 149.875C349.24 148.979 349.41 148.142 349.75 147.363C350.091 146.584 350.552 145.902 351.135 145.318C351.718 144.734 352.398 144.271 353.176 143.931C353.953 143.59 354.789 143.419 355.683 143.419C356.576 143.419 357.417 143.59 358.204 143.931C358.991 144.271 359.676 144.734 360.259 145.318C360.842 145.902 361.304 146.584 361.644 147.363C361.984 148.142 362.154 148.98 362.154 149.875C362.154 150.226 362.028 150.528 361.775 150.781C361.522 151.034 361.211 151.161 360.842 151.161C360.492 151.161 360.191 151.034 359.938 150.781C359.686 150.528 359.559 150.226 359.559 149.875C359.559 149.35 359.457 148.848 359.253 148.371C359.049 147.894 358.772 147.48 358.423 147.129C358.073 146.779 357.66 146.501 357.184 146.297C356.708 146.092 356.207 145.99 355.682 145.99C355.158 145.99 354.662 146.092 354.196 146.297C353.729 146.501 353.321 146.779 352.972 147.129C352.622 147.48 352.345 147.894 352.141 148.371C351.937 148.848 351.835 149.35 351.835 149.875C351.835 150.46 351.956 150.946 352.199 151.336C352.442 151.725 352.787 152.066 353.234 152.358C353.7 152.651 354.225 152.913 354.808 153.147L355.741 153.498L356.703 153.848C357.344 154.082 357.99 154.35 358.641 154.652C359.292 154.953 359.875 155.333 360.39 155.791C360.905 156.249 361.328 156.818 361.658 157.5C361.989 158.182 362.154 159.019 362.154 160.012C362.154 160.908 361.984 161.746 361.644 162.525C361.304 163.303 360.842 163.985 360.259 164.569C359.676 165.154 358.991 165.616 358.204 165.957C357.417 166.298 356.576 166.468 355.682 166.468ZM394.854 156.331L391.007 156.331V165.183C391.007 165.533 390.88 165.835 390.628 166.088C390.375 166.342 390.074 166.468 389.724 166.468C389.355 166.468 389.044 166.342 388.791 166.088C388.538 165.835 388.412 165.533 388.412 165.183V144.705C388.412 144.354 388.538 144.052 388.791 143.799C389.044 143.546 389.355 143.419 389.724 143.419H394.854C395.748 143.419 396.589 143.59 397.376 143.93C398.163 144.271 398.848 144.734 399.431 145.318C400.014 145.902 400.475 146.584 400.816 147.363C401.156 148.142 401.326 148.979 401.326 149.875C401.326 150.771 401.156 151.609 400.816 152.388C400.475 153.167 400.014 153.848 399.431 154.432C398.848 155.017 398.163 155.479 397.376 155.82C396.589 156.161 395.748 156.331 394.854 156.331ZM394.854 145.99H391.007V153.731H394.854C395.379 153.731 395.88 153.629 396.356 153.425C396.832 153.22 397.245 152.943 397.595 152.592C397.944 152.242 398.221 151.833 398.425 151.365C398.629 150.898 398.731 150.401 398.731 149.875C398.731 149.35 398.629 148.848 398.425 148.371C398.221 147.894 397.944 147.48 397.595 147.129C397.245 146.779 396.832 146.501 396.356 146.297C395.88 146.092 395.379 145.99 394.854 145.99ZM437.175 166.468C435.581 166.468 434.085 166.166 432.685 165.563C431.286 164.959 430.067 164.136 429.027 163.094C427.987 162.052 427.166 160.83 426.564 159.428C425.962 158.026 425.66 156.526 425.66 154.929C425.66 153.352 425.961 151.862 426.564 150.46C427.166 149.057 427.987 147.835 429.027 146.793C430.067 145.751 431.286 144.929 432.685 144.325C434.085 143.721 435.581 143.419 437.175 143.419C438.749 143.419 440.235 143.721 441.635 144.325C443.034 144.929 444.253 145.751 445.293 146.793C446.333 147.835 447.154 149.057 447.756 150.46C448.358 151.862 448.66 153.352 448.66 154.929C448.66 156.526 448.358 158.026 447.756 159.428C447.154 160.83 446.333 162.052 445.293 163.094C444.253 164.136 443.034 164.959 441.635 165.563C440.235 166.166 438.749 166.468 437.175 166.468ZM437.175 145.99C435.95 145.99 434.794 146.224 433.706 146.691C432.617 147.159 431.665 147.796 430.849 148.605C430.033 149.413 429.391 150.362 428.925 151.453C428.459 152.543 428.225 153.702 428.225 154.929C428.225 156.156 428.459 157.315 428.925 158.405C429.391 159.496 430.033 160.45 430.849 161.268C431.665 162.086 432.617 162.729 433.706 163.196C434.794 163.664 435.95 163.898 437.175 163.898C438.399 163.898 439.555 163.664 440.643 163.196C441.732 162.729 442.679 162.086 443.486 161.268C444.292 160.45 444.928 159.496 445.395 158.405C445.861 157.315 446.094 156.156 446.094 154.929C446.094 153.702 445.861 152.543 445.395 151.453C444.928 150.362 444.292 149.413 443.486 148.605C442.679 147.796 441.732 147.159 440.643 146.691C439.555 146.224 438.399 145.99 437.175 145.99ZM489.143 166.468C488.658 166.468 488.288 166.264 488.036 165.855L477.512 149.145V165.183C477.512 165.533 477.391 165.835 477.148 166.088C476.905 166.342 476.599 166.468 476.23 166.468C475.88 166.468 475.579 166.342 475.326 166.088C475.074 165.835 474.947 165.533 474.947 165.183V144.705C474.947 144.354 475.074 144.052 475.326 143.799C475.579 143.546 475.88 143.419 476.23 143.419C476.716 143.419 477.085 143.614 477.338 144.004L487.861 160.713V144.705C487.861 144.354 487.982 144.052 488.225 143.799C488.468 143.546 488.774 143.419 489.143 143.419C489.493 143.419 489.794 143.546 490.047 143.799C490.3 144.052 490.426 144.354 490.426 144.705V165.183C490.426 165.533 490.3 165.835 490.047 166.088C489.794 166.342 489.493 166.468 489.143 166.468ZM523.127 166.468C522.233 166.468 521.397 166.298 520.62 165.957C519.842 165.616 519.162 165.154 518.579 164.569C517.996 163.985 517.535 163.304 517.195 162.524C516.854 161.745 516.684 160.908 516.684 160.012C516.684 159.642 516.811 159.331 517.063 159.077C517.316 158.824 517.627 158.698 517.996 158.698C518.346 158.698 518.647 158.824 518.9 159.077C519.153 159.331 519.279 159.642 519.279 160.012C519.279 160.538 519.381 161.035 519.585 161.502C519.789 161.969 520.066 162.378 520.416 162.729C520.765 163.08 521.174 163.357 521.64 163.562C522.106 163.766 522.602 163.868 523.127 163.868C523.651 163.868 524.152 163.766 524.628 163.562C525.104 163.357 525.517 163.08 525.867 162.729C526.217 162.378 526.494 161.969 526.698 161.502C526.902 161.035 527.004 160.538 527.004 160.012C527.004 159.369 526.877 158.839 526.625 158.42C526.372 158.001 526.022 157.636 525.575 157.325C525.361 157.169 525.119 157.028 524.847 156.901C524.574 156.774 524.293 156.643 524.001 156.507C523.71 156.39 523.408 156.273 523.098 156.156C522.787 156.039 522.466 155.922 522.136 155.806C521.494 155.572 520.848 155.309 520.197 155.017C519.546 154.725 518.963 154.36 518.448 153.921C517.933 153.483 517.51 152.938 517.18 152.285C516.85 151.633 516.685 150.83 516.685 149.875C516.685 148.979 516.855 148.142 517.195 147.363C517.535 146.584 517.996 145.902 518.579 145.318C519.162 144.734 519.842 144.271 520.62 143.931C521.397 143.59 522.233 143.419 523.127 143.419C524.021 143.419 524.861 143.59 525.648 143.931C526.435 144.271 527.12 144.734 527.703 145.318C528.286 145.902 528.748 146.584 529.088 147.363C529.428 148.142 529.598 148.98 529.598 149.875C529.598 150.226 529.472 150.528 529.219 150.781C528.966 151.034 528.655 151.161 528.286 151.161C527.936 151.161 527.635 151.034 527.383 150.781C527.13 150.528 527.004 150.226 527.004 149.875C527.004 149.35 526.902 148.848 526.698 148.371C526.494 147.894 526.217 147.48 525.867 147.129C525.517 146.779 525.104 146.501 524.628 146.297C524.152 146.092 523.651 145.99 523.127 145.99C522.602 145.99 522.106 146.092 521.64 146.297C521.174 146.501 520.765 146.779 520.416 147.129C520.066 147.48 519.789 147.894 519.585 148.371C519.381 148.848 519.279 149.35 519.279 149.875C519.279 150.46 519.4 150.946 519.643 151.336C519.886 151.725 520.231 152.066 520.678 152.358C521.144 152.651 521.669 152.913 522.252 153.147L523.185 153.498L524.147 153.848C524.788 154.082 525.434 154.35 526.085 154.652C526.736 154.953 527.319 155.333 527.834 155.791C528.349 156.249 528.772 156.818 529.102 157.5C529.433 158.182 529.598 159.019 529.598 160.012C529.598 160.908 529.428 161.746 529.088 162.525C528.748 163.303 528.286 163.985 527.703 164.569C527.12 165.154 526.435 165.616 525.648 165.957C524.861 166.298 524.02 166.468 523.127 166.468ZM557.168 166.468C556.799 166.468 556.488 166.342 556.235 166.088C555.983 165.835 555.856 165.533 555.856 165.183V144.705C555.856 144.354 555.983 144.052 556.235 143.799C556.488 143.546 556.799 143.419 557.168 143.419C557.518 143.419 557.819 143.546 558.072 143.799C558.324 144.052 558.451 144.354 558.451 144.705V165.183C558.451 165.533 558.324 165.835 558.072 166.088C557.819 166.342 557.518 166.468 557.168 166.468ZM602.228 144.997L593.921 165.65C593.823 165.903 593.668 166.103 593.454 166.249C593.24 166.395 592.998 166.468 592.726 166.468C592.453 166.468 592.211 166.395 591.997 166.249C591.783 166.103 591.628 165.903 591.53 165.65L583.194 144.997C583.135 144.86 583.106 144.695 583.106 144.5C583.106 144.15 583.232 143.848 583.485 143.595C583.738 143.341 584.039 143.215 584.389 143.215C584.661 143.215 584.908 143.288 585.132 143.434C585.355 143.58 585.516 143.78 585.613 144.033L592.726 161.707L599.838 144.033C599.935 143.78 600.091 143.58 600.305 143.434C600.518 143.288 600.761 143.215 601.033 143.215C601.403 143.215 601.714 143.341 601.966 143.595C602.219 143.848 602.345 144.15 602.345 144.5C602.345 144.695 602.306 144.86 602.228 144.997ZM638.34 166.468L628.312 166.468C627.943 166.468 627.632 166.342 627.379 166.088C627.126 165.835 627 165.533 627 165.183V165.124V165.066V144.705C627 144.354 627.126 144.052 627.379 143.799C627.632 143.546 627.943 143.419 628.312 143.419H638.34C638.709 143.419 639.02 143.546 639.272 143.799C639.525 144.052 639.651 144.354 639.651 144.705C639.651 145.075 639.525 145.381 639.272 145.625C639.02 145.868 638.709 145.99 638.34 145.99H629.595V153.439H636.97C637.319 153.439 637.621 153.561 637.873 153.804C638.126 154.048 638.252 154.355 638.252 154.725C638.252 155.075 638.126 155.377 637.873 155.63C637.621 155.883 637.319 156.01 636.97 156.01H629.595V163.868H638.34C638.709 163.868 639.02 163.995 639.272 164.248C639.525 164.501 639.651 164.813 639.651 165.183C639.651 165.533 639.525 165.835 639.272 166.088C639.02 166.342 638.709 166.468 638.34 166.468ZM665.385 169.711C665.113 169.886 664.841 169.974 664.569 169.974C664.219 169.974 663.923 169.852 663.68 169.609C663.437 169.365 663.315 169.068 663.315 168.718C663.315 168.484 663.359 168.289 663.447 168.133C663.534 167.978 663.646 167.841 663.782 167.724C664.054 167.471 664.238 167.252 664.336 167.067C664.433 166.882 664.481 166.644 664.481 166.351V166.235C664.209 166.079 663.996 165.874 663.84 165.621C663.685 165.368 663.607 165.076 663.607 164.745C663.607 164.258 663.777 163.854 664.117 163.532C664.457 163.211 664.86 163.05 665.327 163.05C665.929 163.05 666.371 163.245 666.653 163.635C666.935 164.024 667.076 164.462 667.076 164.949V166.351C667.076 167.014 666.925 167.637 666.624 168.221C666.323 168.805 665.91 169.302 665.385 169.711ZM732.244 166.468L726.035 166.468C725.666 166.468 725.355 166.342 725.102 166.089C724.849 165.835 724.723 165.533 724.723 165.183V144.705C724.723 144.354 724.849 144.052 725.102 143.799C725.355 143.546 725.666 143.419 726.035 143.419H730.291C731.029 143.419 731.729 143.561 732.39 143.843C733.05 144.125 733.624 144.51 734.109 144.997C734.595 145.484 734.979 146.058 735.261 146.72C735.543 147.383 735.684 148.084 735.684 148.824C735.684 149.992 735.334 151.063 734.634 152.037C735.392 152.29 736.082 152.636 736.704 153.074C737.326 153.512 737.86 154.033 738.307 154.637C738.754 155.241 739.104 155.908 739.356 156.638C739.609 157.368 739.735 158.143 739.735 158.961C739.735 159.993 739.541 160.966 739.152 161.882C738.764 162.797 738.229 163.596 737.549 164.277C736.869 164.959 736.072 165.495 735.159 165.884C734.245 166.274 733.274 166.468 732.244 166.468ZM730.291 145.99H727.317V151.628H730.582C730.893 151.628 731.199 151.545 731.501 151.38C731.802 151.214 732.069 151 732.302 150.737C732.535 150.474 732.725 150.177 732.871 149.846C733.016 149.515 733.089 149.174 733.089 148.824C733.089 148.434 733.016 148.069 732.871 147.728C732.725 147.387 732.526 147.086 732.273 146.823C732.02 146.56 731.724 146.355 731.384 146.209C731.044 146.063 730.679 145.99 730.291 145.99ZM732.244 154.228L727.317 154.228V163.868H732.244C732.924 163.868 733.56 163.742 734.153 163.488C734.746 163.235 735.266 162.885 735.713 162.437C736.16 161.989 736.509 161.468 736.762 160.874C737.015 160.28 737.141 159.642 737.141 158.96C737.141 158.279 737.01 157.646 736.748 157.062C736.485 156.477 736.135 155.976 735.698 155.557C735.261 155.138 734.741 154.812 734.139 154.579C733.536 154.345 732.905 154.228 732.244 154.228ZM774.214 166.468C772.99 166.468 771.843 166.234 770.775 165.767C769.706 165.3 768.768 164.667 767.961 163.868C767.155 163.07 766.519 162.13 766.052 161.049C765.586 159.968 765.353 158.814 765.353 157.587V144.705C765.353 144.354 765.479 144.052 765.732 143.799C765.984 143.546 766.295 143.419 766.664 143.419C767.014 143.419 767.315 143.546 767.568 143.799C767.821 144.052 767.947 144.354 767.947 144.705V157.587C767.947 158.464 768.112 159.282 768.443 160.041C768.773 160.801 769.22 161.463 769.783 162.028C770.347 162.593 771.013 163.041 771.78 163.372C772.548 163.703 773.359 163.868 774.214 163.868C775.089 163.868 775.905 163.703 776.663 163.372C777.421 163.041 778.086 162.593 778.66 162.028C779.233 161.463 779.685 160.796 780.015 160.027C780.345 159.257 780.511 158.444 780.511 157.587V144.705C780.511 144.354 780.637 144.052 780.89 143.799C781.142 143.546 781.443 143.419 781.793 143.419C782.162 143.419 782.473 143.546 782.726 143.799C782.979 144.052 783.105 144.354 783.105 144.705V157.587C783.105 158.814 782.872 159.968 782.405 161.049C781.939 162.13 781.303 163.07 780.496 163.868C779.69 164.667 778.747 165.3 777.669 165.767C776.59 166.234 775.439 166.468 774.214 166.468ZM811.317 166.468C810.947 166.468 810.636 166.342 810.384 166.088C810.131 165.835 810.005 165.533 810.005 165.183V144.705C810.005 144.354 810.131 144.052 810.384 143.799C810.636 143.546 810.947 143.419 811.317 143.419C811.666 143.419 811.968 143.546 812.22 143.799C812.473 144.052 812.599 144.354 812.599 144.705V165.183C812.599 165.533 812.473 165.835 812.22 166.088C811.968 166.342 811.666 166.468 811.317 166.468ZM848.565 166.468H840.781C840.432 166.468 840.13 166.342 839.878 166.088C839.625 165.835 839.499 165.533 839.499 165.183V144.705C839.499 144.335 839.625 144.028 839.878 143.784C840.13 143.541 840.432 143.419 840.781 143.419C841.151 143.419 841.457 143.541 841.7 143.784C841.943 144.028 842.064 144.335 842.064 144.705V163.898H848.565C848.934 163.898 849.245 164.024 849.497 164.277C849.75 164.53 849.876 164.832 849.876 165.183C849.876 165.533 849.75 165.835 849.497 166.088C849.245 166.342 848.934 166.468 848.565 166.468ZM882.664 166.468L875.493 166.468C875.26 166.468 875.037 166.4 874.823 166.264C874.609 166.127 874.454 165.952 874.357 165.738C874.182 165.426 874.162 165.076 874.298 164.686V144.705C874.298 144.354 874.425 144.052 874.677 143.799C874.93 143.546 875.241 143.419 875.61 143.419H882.635C884.17 143.419 885.57 143.75 886.833 144.412C888.096 145.075 889.175 145.941 890.069 147.012C890.962 148.084 891.652 149.301 892.138 150.664C892.624 152.027 892.867 153.41 892.867 154.812C892.867 156.546 892.571 158.128 891.978 159.559C891.385 160.991 890.608 162.218 889.646 163.24C888.684 164.263 887.591 165.056 886.366 165.621C885.142 166.186 883.908 166.468 882.664 166.468ZM882.635 145.99L876.893 145.99V163.897H882.664C883.772 163.897 884.788 163.63 885.711 163.094C886.634 162.558 887.435 161.862 888.115 161.005C888.796 160.148 889.325 159.175 889.704 158.084C890.083 156.993 890.273 155.903 890.273 154.812C890.273 153.702 890.088 152.616 889.719 151.555C889.349 150.494 888.83 149.549 888.159 148.721C887.489 147.894 886.682 147.231 885.74 146.735C884.797 146.238 883.762 145.99 882.635 145.99ZM957.86 156.331L954.012 156.331V165.183C954.012 165.533 953.886 165.835 953.633 166.088C953.381 166.342 953.079 166.468 952.73 166.468C952.36 166.468 952.049 166.342 951.797 166.088C951.544 165.835 951.418 165.533 951.418 165.183V144.705C951.418 144.354 951.544 144.052 951.797 143.799C952.049 143.546 952.36 143.419 952.73 143.419H957.86C958.754 143.419 959.594 143.59 960.382 143.93C961.169 144.271 961.854 144.734 962.437 145.318C963.02 145.902 963.481 146.584 963.821 147.363C964.161 148.142 964.331 148.979 964.331 149.875C964.331 150.771 964.161 151.609 963.821 152.388C963.481 153.167 963.02 153.848 962.437 154.432C961.854 155.017 961.169 155.479 960.382 155.82C959.594 156.161 958.754 156.331 957.86 156.331ZM957.86 145.99H954.012V153.731H957.86C958.385 153.731 958.885 153.629 959.361 153.425C959.837 153.22 960.25 152.943 960.6 152.592C960.95 152.242 961.227 151.833 961.431 151.365C961.635 150.898 961.737 150.401 961.737 149.875C961.737 149.35 961.635 148.848 961.431 148.371C961.227 147.894 960.95 147.48 960.6 147.129C960.25 146.779 959.837 146.501 959.361 146.297C958.885 146.092 958.385 145.99 957.86 145.99ZM995.749 156.331L995.4 156.331L995.779 155.659L1001.05 164.511C1001.17 164.725 1001.23 164.949 1001.23 165.183C1001.23 165.533 1001.1 165.835 1000.85 166.088C1000.6 166.342 1000.3 166.468 999.947 166.468C999.714 166.468 999.495 166.41 999.291 166.293C999.087 166.176 998.927 166.02 998.81 165.826L993.155 156.331H991.902V165.183C991.902 165.533 991.775 165.835 991.523 166.088C991.27 166.342 990.969 166.468 990.619 166.468C990.25 166.468 989.939 166.342 989.686 166.088C989.433 165.835 989.307 165.533 989.307 165.183V144.705C989.307 144.354 989.433 144.052 989.686 143.799C989.939 143.546 990.25 143.419 990.619 143.419H995.749C996.643 143.419 997.484 143.59 998.271 143.93C999.058 144.271 999.743 144.734 1000.33 145.318C1000.91 145.902 1001.37 146.584 1001.71 147.363C1002.05 148.142 1002.22 148.979 1002.22 149.875C1002.22 150.771 1002.05 151.609 1001.71 152.388C1001.37 153.167 1000.91 153.848 1000.33 154.432C999.743 155.017 999.058 155.479 998.271 155.82C997.484 156.161 996.643 156.331 995.749 156.331ZM995.749 145.99H991.902V153.731H995.749C996.274 153.731 996.775 153.629 997.251 153.425C997.727 153.22 998.14 152.943 998.49 152.592C998.839 152.242 999.116 151.833 999.32 151.365C999.524 150.898 999.626 150.401 999.626 149.875C999.626 149.35 999.524 148.848 999.32 148.371C999.116 147.894 998.839 147.48 998.49 147.129C998.14 146.779 997.727 146.501 997.251 146.297C996.775 146.092 996.274 145.99 995.749 145.99ZM1038.54 166.468L1028.51 166.468C1028.14 166.468 1027.83 166.342 1027.58 166.088C1027.32 165.835 1027.2 165.533 1027.2 165.183V165.124V165.066V144.705C1027.2 144.354 1027.32 144.052 1027.58 143.799C1027.83 143.546 1028.14 143.419 1028.51 143.419H1038.54C1038.91 143.419 1039.22 143.546 1039.47 143.799C1039.72 144.052 1039.85 144.354 1039.85 144.705C1039.85 145.075 1039.72 145.381 1039.47 145.625C1039.22 145.868 1038.91 145.99 1038.54 145.99H1029.79V153.439H1037.17C1037.52 153.439 1037.82 153.561 1038.07 153.804C1038.32 154.048 1038.45 154.355 1038.45 154.725C1038.45 155.075 1038.32 155.377 1038.07 155.63C1037.82 155.883 1037.52 156.01 1037.17 156.01H1029.79V163.868H1038.54C1038.91 163.868 1039.22 163.995 1039.47 164.248C1039.72 164.501 1039.85 164.813 1039.85 165.183C1039.85 165.533 1039.72 165.835 1039.47 166.088C1039.22 166.342 1038.91 166.468 1038.54 166.468ZM1076.13 145.99H1071.41V165.183C1071.41 165.533 1071.29 165.835 1071.03 166.088C1070.78 166.342 1070.48 166.468 1070.13 166.468C1069.76 166.468 1069.45 166.342 1069.2 166.088C1068.94 165.835 1068.82 165.533 1068.82 165.183V145.99H1064.09C1063.74 145.99 1063.44 145.868 1063.19 145.625C1062.94 145.381 1062.81 145.075 1062.81 144.705C1062.81 144.354 1062.94 144.052 1063.19 143.799C1063.44 143.546 1063.74 143.419 1064.09 143.419H1076.13C1076.48 143.419 1076.78 143.546 1077.04 143.799C1077.29 144.052 1077.42 144.354 1077.42 144.705C1077.42 145.075 1077.29 145.381 1077.04 145.625C1076.78 145.868 1076.48 145.99 1076.13 145.99ZM1113.15 145.99H1108.43V165.183C1108.43 165.533 1108.3 165.835 1108.05 166.088C1107.79 166.342 1107.49 166.468 1107.14 166.468C1106.77 166.468 1106.46 166.342 1106.21 166.088C1105.96 165.835 1105.83 165.533 1105.83 165.183V145.99H1101.11C1100.76 145.99 1100.46 145.868 1100.21 145.625C1099.95 145.381 1099.83 145.075 1099.83 144.705C1099.83 144.354 1099.95 144.052 1100.21 143.799C1100.46 143.546 1100.76 143.419 1101.11 143.419H1113.15C1113.5 143.419 1113.8 143.546 1114.05 143.799C1114.3 144.052 1114.43 144.354 1114.43 144.705C1114.43 145.075 1114.3 145.381 1114.05 145.625C1113.8 145.868 1113.5 145.99 1113.15 145.99ZM1152.82 145.347L1146.2 157.208V165.183C1146.2 165.533 1146.07 165.835 1145.82 166.088C1145.57 166.342 1145.27 166.468 1144.92 166.468C1144.57 166.468 1144.27 166.342 1144.01 166.088C1143.76 165.835 1143.63 165.533 1143.63 165.183V157.208L1137.02 145.347C1136.9 145.153 1136.84 144.938 1136.84 144.705C1136.84 144.354 1136.97 144.052 1137.22 143.799C1137.47 143.546 1137.77 143.419 1138.12 143.419C1138.36 143.419 1138.58 143.478 1138.78 143.595C1138.98 143.711 1139.14 143.867 1139.26 144.062L1144.92 154.199L1150.57 144.062C1150.69 143.867 1150.85 143.711 1151.05 143.595C1151.26 143.478 1151.48 143.419 1151.71 143.419C1152.06 143.419 1152.36 143.546 1152.61 143.799C1152.86 144.052 1152.99 144.354 1152.99 144.705C1152.99 144.938 1152.93 145.153 1152.82 145.347Z"
          fill="currentColor"/>
</svg>
